<svg width="1024" height="1024" xmlns="http://www.w3.org/2000/svg" xml:space="preserve" enable-background="new 0 0 1024 1024" version="1.1">

 <g>
  <title>Layer 1</title>
  <path id="svg_1" d="m649.99264,558.22841c-0.00068,10.83243 -0.13251,21.16696 0.03631,31.49658c0.15491,9.4762 -4.38763,15.71692 -12.64996,19.70069c-33.00544,15.91397 -66.00604,31.83783 -99.00092,47.77368c-2.37964,1.14929 -4.69885,2.42364 -7.48755,3.86847c2.74085,5.41308 5.55237,10.39563 6.56775,16.2622c2.64337,15.27295 -6.91778,29.86054 -22.10889,32.91346c-14.32565,2.8789 -28.83056,-6.64179 -31.8132,-21.37744c-0.84448,-4.17206 -2.81003,-6.22016 -6.48263,-7.87909c-21.09445,-9.5282 -42.12271,-19.20514 -63.09369,-29.00226c-3.38181,-1.57993 -5.54404,-1.93888 -8.52713,1.22418c-7.64517,8.10645 -19.7919,10.07104 -30.42652,5.37787c-10.58279,-4.67029 -15.22879,-13.28009 -15.74862,-24.55872c-0.3728,-8.08822 1.85119,-15.14904 7.67117,-20.86679c1.51636,-1.48971 1.84802,-2.80139 1.1705,-4.83154c-5.05432,-15.1452 -10.04275,-30.31299 -14.9306,-45.51264c-0.93851,-2.91857 -2.58154,-4.82254 -5.34531,-6.11251c-6.33725,-2.95789 -12.66043,-5.96436 -18.84234,-9.2294c-3.43772,-1.81565 -5.9859,-1.85444 -9.45755,0.57885c-16.41092,11.5022 -37.64752,3.85492 -42.60239,-15.03424c-3.88025,-14.79245 4.52448,-29.58853 19.13113,-33.67926c14.45301,-4.04767 30.80936,4.12653 32.94483,18.59552c1.39059,9.42224 6.3949,12.89414 13.59024,15.96387c3.06091,1.30582 6.23544,2.52594 8.9787,4.35461c4.40823,2.93854 7.72333,2.46192 11.7846,-1.08981c11.78534,-10.30676 23.9827,-20.14188 35.98142,-30.20609c1.22955,-1.03131 2.65881,-1.98046 3.3678,-4.14178c-11.72711,-5.83881 -23.45264,-11.7074 -35.20487,-17.52212c-29.85876,-14.77341 -59.73208,-29.5174 -89.59103,-44.29044c-2.86078,-1.41541 -5.66306,-2.80628 -5.6694,-6.79965c-0.00623,-3.91779 2.57,-5.49814 5.48538,-6.95118c34.28653,-17.08862 68.56827,-34.18684 102.86133,-51.26231c40.25518,-20.0442 80.56768,-39.97444 120.7337,-60.19563c6.56,-3.30257 12.23053,-3.4458 18.86353,-0.16155c74.78411,37.02852 149.66754,73.8566 224.51202,110.76333c1.776,0.87579 3.68109,1.7647 5.05719,3.12255c3.46075,3.41474 2.40106,7.87815 -2.64935,10.51203c-7.3808,3.84924 -14.83185,7.59234 -22.42847,10.98779c-4.19922,1.87692 -5.84021,4.33789 -5.78925,9.11563c0.25977,24.32837 0.1637,48.66113 0.07093,72.99195c-0.01245,3.27511 0.79394,5.41204 3.74853,7.38415c7.6659,5.11697 9.6322,15.43573 4.59571,23.47549c-1.91736,3.0607 -2.46943,5.74234 -1.6659,9.32792c3.44867,15.3876 6.55066,30.85299 9.77149,46.29162c1.22546,5.87384 -0.74042,8.60626 -6.82166,8.69046c-11.49652,0.15921 -22.99902,0.17148 -34.49481,-0.0173c-6.92438,-0.11374 -9.00256,-2.88361 -7.57092,-10.1965c2.96612,-15.1511 6.11743,-30.2674 9.37255,-45.3592c0.70325,-3.26025 0.60358,-5.88998 -1.27685,-8.89624c-4.87372,-7.7912 -3.18317,-17.49151 3.81403,-23.43493c1.79736,-1.52667 2.87725,-3.02307 2.87237,-5.43411c-0.04492,-22.33106 -0.02875,-44.66224 -0.04602,-66.99338c-0.00092,-1.15381 0.02856,-2.35126 -0.94971,-3.44303c-2.06329,-0.89392 -3.68872,0.62189 -5.38702,1.4596c-56.76068,27.99841 -113.54688,55.94583 -170.20654,84.1474c-8.21302,4.08795 -15.56751,4.10132 -23.71802,-0.0315c-24.06421,-12.20193 -48.36975,-23.92724 -72.48529,-36.02954c-4.19968,-2.1076 -7.13968,-2.20685 -11.02344,1.11856c-14.54865,12.457 -29.45493,24.49842 -44.3172,36.58487c-2.38525,1.93973 -3.16009,3.73291 -2.14807,6.79105c4.59702,13.89102 9.0108,27.84329 13.39584,41.80328c0.87381,2.78171 2.0022,4.30298 5.37012,4.69943c13.49097,1.58805 21.32718,9.64866 23.15744,23.40565c0.3071,2.30844 1.25058,3.59225 3.24759,4.51312c23.2829,10.73657 46.55045,21.50647 70.31818,32.49695c3.77826,-4.87616 8.28949,-8.87372 13.74887,-11.91871c2.67978,-1.49456 1.97,-5.10021 1.98443,-7.86041c0.08109,-15.49814 0.05087,-30.99689 0.05847,-46.49542c0.00281,-5.66617 -0.05365,-11.3331 0.02402,-16.99826c0.07919,-5.77478 2.46442,-8.37747 8.15714,-8.25855c3.91858,0.08191 7.0982,-1.58667 10.37561,-3.15783c41.30371,-19.80112 82.59155,-39.63507 123.89123,-59.44449c1.45319,-0.69702 2.79914,-1.82648 5.24884,-1.50067c0,15.98761 0,31.93466 0.00013,48.38171m-163.1872,-127.72009c3.3107,10.90134 11.45682,17.90225 21.11627,18.39651c10.67816,0.54639 18.3504,-4.25567 23.17053,-13.41006c5.00214,-9.50006 4.33063,-19.01077 -2.02276,-27.73639c-9.05078,-12.43028 -26.02228,-13.3567 -36.36716,-2.16812c-6.39932,6.9212 -7.90677,15.11563 -5.89688,24.91806z" fill="#000000"/>
 </g>
</svg>