<svg version="1.1" id="Layer_1" xmlns="http://www.w3.org/2000/svg" xmlns:xlink="http://www.w3.org/1999/xlink" x="0px" y="0px"
	 width="100%" viewBox="0 0 1024 1024" enable-background="new 0 0 1024 1024" xml:space="preserve">
<path fill="#000000" opacity="1.000000" stroke="none" 
	d="
M652.339905,417.000061 
	C652.339233,427.832489 652.207397,438.167023 652.376221,448.496643 
	C652.531128,457.972839 647.988586,464.213562 639.726257,468.197327 
	C606.720825,484.111298 573.720215,500.035156 540.725342,515.971008 
	C538.345703,517.120300 536.026489,518.394653 533.237793,519.839478 
	C535.978638,525.252563 538.790161,530.235107 539.805542,536.101685 
	C542.448914,551.374634 532.887756,565.962219 517.696655,569.015137 
	C503.371002,571.894043 488.866089,562.373352 485.883453,547.637695 
	C485.038971,543.465637 483.073425,541.417542 479.400818,539.758606 
	C458.306366,530.230408 437.278107,520.553467 416.307129,510.756348 
	C412.925323,509.176422 410.763092,508.817474 407.779999,511.980530 
	C400.134827,520.086975 387.988098,522.051575 377.353485,517.358398 
	C366.770691,512.688110 362.124695,504.078308 361.604858,492.799683 
	C361.232056,484.711456 363.456055,477.650635 369.276031,471.932892 
	C370.792389,470.443176 371.124054,469.131500 370.446533,467.101349 
	C365.392212,451.956146 360.403778,436.788361 355.515930,421.588715 
	C354.577423,418.670135 352.934387,416.766174 350.170624,415.476196 
	C343.833374,412.518311 337.510193,409.511841 331.328278,406.246796 
	C327.890564,404.431152 325.342377,404.392365 321.870728,406.825653 
	C305.459808,418.327850 284.223206,410.680573 279.268341,391.791412 
	C275.388092,376.998962 283.792816,362.202881 298.399475,358.112152 
	C312.852478,354.064484 329.208832,362.238678 331.344299,376.707672 
	C332.734894,386.129913 337.739197,389.601807 344.934540,392.671539 
	C347.995453,393.977356 351.169983,395.197479 353.913239,397.026154 
	C358.321472,399.964691 361.636566,399.488068 365.697845,395.936340 
	C377.483185,385.629578 389.680542,375.794464 401.679260,365.730255 
	C402.908813,364.698944 404.338074,363.749786 405.047058,361.588470 
	C393.319946,355.749664 381.594421,349.881073 369.842194,344.066345 
	C339.983429,329.292938 310.110107,314.548950 280.251160,299.775909 
	C277.390381,298.360504 274.588104,296.969635 274.581757,292.976257 
	C274.575531,289.058472 277.151764,287.478119 280.067139,286.025085 
	C314.353668,268.936462 348.635406,251.838242 382.928467,234.762772 
	C423.183655,214.718567 463.496155,194.788330 503.662170,174.567139 
	C510.222168,171.264572 515.892700,171.121338 522.525696,174.405594 
	C597.309814,211.434113 672.193237,248.262192 747.037720,285.168915 
	C748.813721,286.044708 750.718811,286.933624 752.094910,288.291473 
	C755.555664,291.706207 754.495972,296.169617 749.445557,298.803497 
	C742.064758,302.652740 734.613708,306.395844 727.017090,309.791290 
	C722.817871,311.668213 721.176880,314.129181 721.227844,318.906921 
	C721.487610,343.235291 721.391541,367.568054 721.298767,391.898865 
	C721.286316,395.173981 722.092712,397.310913 725.047302,399.283020 
	C732.713196,404.399994 734.679504,414.718750 729.643005,422.758514 
	C727.725647,425.819214 727.173584,428.500854 727.977112,432.086426 
	C731.425781,447.474030 734.527771,462.939423 737.748596,478.378052 
	C738.974060,484.251892 737.008179,486.984314 730.926941,487.068512 
	C719.430420,487.227722 707.927917,487.239990 696.432129,487.051208 
	C689.507751,486.937469 687.429565,484.167603 688.861206,476.854706 
	C691.827332,461.703613 694.978638,446.587311 698.233765,431.495514 
	C698.937012,428.235260 698.837341,425.605530 696.956909,422.599274 
	C692.083191,414.808075 693.773743,405.107758 700.770935,399.164337 
	C702.568298,397.637665 703.648193,396.141266 703.643311,393.730225 
	C703.598389,371.399170 703.614563,349.067993 703.597290,326.736847 
	C703.596375,325.583038 703.625854,324.385590 702.647583,323.293823 
	C700.584290,322.399902 698.958862,323.915710 697.260559,324.753418 
	C640.499878,352.751831 583.713684,380.699249 527.054016,408.900818 
	C518.841003,412.988770 511.486511,413.002136 503.335999,408.869324 
	C479.271790,396.667389 454.966248,384.942078 430.850708,372.839783 
	C426.651031,370.732178 423.711029,370.632935 419.827271,373.958344 
	C405.278625,386.415344 390.372345,398.456757 375.510071,410.543213 
	C373.124817,412.482941 372.349976,414.276123 373.362000,417.334259 
	C377.959015,431.225281 382.372803,445.177551 386.757843,459.137543 
	C387.631653,461.919250 388.760040,463.440521 392.127960,463.836975 
	C405.618927,465.425018 413.455139,473.485626 415.285400,487.242615 
	C415.592499,489.551056 416.535980,490.834869 418.532990,491.755737 
	C441.815887,502.492310 465.083435,513.262207 488.851166,524.252686 
	C492.629425,519.376526 497.140656,515.378967 502.600037,512.333984 
	C505.279816,510.839417 504.570038,507.233765 504.584473,504.473572 
	C504.665558,488.975433 504.635345,473.476685 504.642944,457.978149 
	C504.645752,452.311981 504.589294,446.645050 504.666962,440.979889 
	C504.746155,435.205109 507.131378,432.602417 512.824097,432.721344 
	C516.742676,432.803253 519.922302,431.134674 523.199707,429.563507 
	C564.503418,409.762390 605.791260,389.928436 647.090942,370.119019 
	C648.544128,369.421997 649.890076,368.292542 652.339783,368.618347 
	C652.339783,384.605957 652.339783,400.553009 652.339905,417.000061 
M489.152710,289.279968 
	C492.463409,300.181305 500.609528,307.182220 510.268982,307.676483 
	C520.947144,308.222870 528.619385,303.420807 533.439514,294.266418 
	C538.441650,284.766357 537.770142,275.255646 531.416748,266.530029 
	C522.365967,254.099747 505.394470,253.173325 495.049591,264.361908 
	C488.650269,271.283112 487.142822,279.477539 489.152710,289.279968 
z"/>
<path fill="#000000" opacity="1.000000" stroke="none" 
	d="
M463.789368,694.119507 
	C456.592773,681.194763 449.556091,668.602783 442.519440,656.010803 
	C442.154419,656.080505 441.789398,656.150146 441.424377,656.219849 
	C441.424377,676.073364 441.424377,695.926880 441.424377,716.370483 
	C434.612793,716.370483 428.498779,716.338928 422.385376,716.384155 
	C419.433807,716.406006 419.511017,714.535645 419.421356,712.358154 
	C419.065063,703.701355 419.403381,695.054443 419.436951,686.403076 
	C419.507324,668.258545 420.031891,650.106079 419.199860,631.960693 
	C418.979919,627.164185 419.166687,622.349060 419.166687,616.750549 
	C427.303833,616.750549 434.719666,616.694580 442.133789,616.781860 
	C444.616180,616.811157 445.151306,619.172302 446.096710,620.831970 
	C453.596252,633.997620 461.032837,647.199158 468.491119,660.388306 
	C469.456360,662.095276 470.260071,663.930481 472.227631,665.365234 
	C477.035645,659.355286 480.059082,652.496582 483.803314,646.101807 
	C488.765778,637.626343 493.549500,629.041504 498.197479,620.389404 
	C499.647034,617.691162 501.383453,616.488037 504.470764,616.623169 
	C509.125519,616.826965 513.813171,616.921509 518.454712,616.599731 
	C522.965698,616.286987 524.498596,617.794373 524.446777,622.460144 
	C524.218872,642.944824 524.348572,663.433472 524.348633,683.920715 
	C524.348694,694.550964 524.348694,705.181213 524.348694,716.489014 
	C517.599915,716.489014 511.324951,716.624146 505.060150,716.430481 
	C502.051880,716.337463 502.701599,713.669678 502.695465,711.813538 
	C502.642090,695.657166 502.658905,679.500488 502.655121,663.343933 
	C502.654541,660.903687 502.655060,658.463440 501.883118,655.786926 
	C492.104736,672.858398 482.326355,689.929871 472.222137,707.570190 
	C468.120117,703.346924 466.438293,698.634766 463.789368,694.119507 
z"/>
<path fill="#000000" opacity="1.000000" stroke="none" 
	d="
M451.680389,766.001709 
	C451.680115,761.671570 451.851410,757.831177 451.632233,754.013245 
	C451.414886,750.227173 452.661316,748.434875 456.709900,748.713989 
	C460.356476,748.965393 464.052429,748.994568 467.693359,748.704346 
	C471.976379,748.362976 473.106567,750.232788 473.083649,754.237122 
	C472.951019,777.385864 473.016510,800.535706 473.004242,823.685181 
	C473.001251,829.347534 472.882782,835.010864 472.962494,840.671753 
	C473.008911,843.967163 471.851837,845.773560 468.299438,845.332581 
	C468.135529,845.312195 467.961945,845.305908 467.800812,845.335815 
	C456.555969,847.419189 449.176941,843.252075 443.031708,833.264465 
	C433.891693,818.409485 423.059143,804.595032 412.919739,790.357117 
	C411.999268,789.064575 411.398834,787.440796 409.192627,786.499084 
	C409.192627,788.577759 409.192322,790.344666 409.192688,792.111511 
	C409.195496,806.101196 409.201660,820.090942 409.200226,834.080627 
	C409.199066,845.336182 409.195007,845.337097 398.190887,845.340637 
	C396.192383,845.341248 394.188690,845.237610 392.196625,845.348267 
	C389.207123,845.514404 387.909637,844.128601 387.974823,841.216797 
	C388.023285,839.052734 387.999390,836.886902 387.997742,834.721863 
	C387.977692,808.241394 388.048096,781.760254 387.850739,755.281067 
	C387.814514,750.420410 389.202515,749.034424 394.279846,748.537476 
	C404.029724,747.583191 410.090118,750.959717 415.435852,759.259583 
	C425.521454,774.918701 436.828186,789.791504 447.639954,804.982239 
	C448.686768,806.453003 449.821472,807.861206 451.680878,810.304260 
	C451.680878,794.949768 451.680878,780.725525 451.680389,766.001709 
z"/>
<path fill="#000000" opacity="1.000000" stroke="none" 
	d="
M579.349121,793.000122 
	C579.344299,808.999878 579.229858,824.500977 579.407593,839.998596 
	C579.454773,844.114685 577.971802,844.953003 573.996887,845.524048 
	C562.552734,847.168335 555.438843,842.987793 549.341125,833.003113 
	C540.071106,817.823730 529.048462,803.714172 518.753052,789.162415 
	C518.010803,788.113403 517.127930,787.163879 516.181396,786.010925 
	C514.852722,787.942749 515.393677,789.817627 515.387634,791.555542 
	C515.331421,807.721802 515.229309,823.889771 515.426575,840.053772 
	C515.477722,844.249634 514.055481,845.722595 509.963806,845.387817 
	C506.652618,845.116882 503.283813,845.113159 499.972931,845.384949 
	C495.717621,845.734314 494.598267,843.876160 494.619720,839.867737 
	C494.751709,815.202148 494.682404,790.535461 494.681854,765.869141 
	C494.681763,761.535889 494.778839,757.200378 494.664337,752.870239 
	C494.584869,749.866699 495.879608,748.636353 498.836334,748.724976 
	C502.333160,748.829712 505.850983,748.955994 509.331055,748.693481 
	C512.898254,748.424438 515.099060,749.778564 517.141785,752.720276 
	C529.874573,771.057190 542.796021,789.263062 555.666382,807.504333 
	C556.233154,808.307617 556.911255,809.032349 557.765381,810.070679 
	C559.127380,808.236572 558.609802,806.393982 558.614929,804.734924 
	C558.666626,788.068726 558.821777,771.399292 558.542664,754.737610 
	C558.459717,749.785645 560.136047,748.133911 564.856140,748.714050 
	C567.154785,748.996582 569.516724,748.763428 571.850037,748.763184 
	C579.334717,748.762390 579.336426,748.762390 579.339355,756.500244 
	C579.343872,768.500183 579.345886,780.500122 579.349121,793.000122 
z"/>
<path fill="#000000" opacity="1.000000" stroke="none" 
	d="
M350.091248,755.794678 
	C375.016632,773.161987 376.751526,806.685486 362.679718,826.540100 
	C350.947296,843.093872 329.276855,851.017212 308.702118,846.081421 
	C288.683502,841.278931 274.640839,825.793213 271.543274,805.103821 
	C267.137238,775.675049 287.252106,750.130371 316.566711,747.526123 
	C328.668274,746.450989 339.631165,749.131409 350.091248,755.794678 
M335.655273,770.780396 
	C328.471985,766.711548 320.816681,765.830688 313.052338,768.341187 
	C298.950470,772.900818 291.664124,785.778076 293.365204,802.399414 
	C295.343536,821.730286 317.660522,833.494080 334.647858,824.160522 
	C354.407043,813.303833 355.288116,784.542664 335.655273,770.780396 
z"/>
<path fill="#000000" opacity="1.000000" stroke="none" 
	d="
M727.180786,636.000610 
	C726.761841,651.633423 727.946960,666.785034 726.405518,681.910095 
	C723.551453,709.914307 701.460388,720.395691 679.753296,717.801636 
	C654.628235,714.799072 642.230225,700.120544 641.874146,674.757019 
	C641.626343,657.106262 641.906982,639.448486 641.743652,621.795776 
	C641.707458,617.878967 643.003235,616.368225 646.925049,616.618835 
	C650.740112,616.862549 654.601807,616.909119 658.408630,616.607849 
	C662.868652,616.254944 664.504822,617.699890 664.440430,622.426086 
	C664.193115,640.576477 664.214844,658.733704 664.394470,676.885803 
	C664.548157,692.418335 677.847229,701.708374 692.250977,696.608887 
	C699.810059,693.932678 704.582397,686.040039 704.628967,675.696472 
	C704.708435,658.042664 704.819275,640.385803 704.558777,622.735535 
	C704.486816,617.861023 706.040527,616.193359 710.813354,616.597656 
	C714.947876,616.947754 719.136169,616.748840 723.297913,616.660889 
	C726.036194,616.602966 727.237732,617.755920 727.194763,620.511719 
	C727.116821,625.506897 727.175659,630.504211 727.180786,636.000610 
z"/>
<path fill="#000000" opacity="1.000000" stroke="none" 
	d="
M311.668274,699.822815 
	C321.746948,673.327759 331.782288,647.229492 341.620178,621.057068 
	C342.892731,617.671509 344.649719,616.409058 348.194733,616.605469 
	C353.012573,616.872253 357.857361,616.744812 362.687897,616.649109 
	C365.007690,616.603271 366.402863,617.500793 367.237000,619.670959 
	C379.415558,651.356506 391.628082,683.028931 403.814423,714.711426 
	C403.917694,714.979980 403.774200,715.343445 403.687134,716.325867 
	C397.164429,716.325867 390.579041,716.347412 383.993988,716.314148 
	C381.717773,716.302673 380.978363,714.546143 380.318542,712.790649 
	C378.795837,708.739380 377.134247,704.731201 375.828278,700.610657 
	C374.891388,697.654663 373.381317,696.275330 370.112518,696.327087 
	C360.116821,696.485291 350.115662,696.471619 340.119598,696.323792 
	C337.128204,696.279541 335.546997,697.362061 334.641785,700.180115 
	C333.268555,704.455078 331.596191,708.633728 330.064178,712.858093 
	C329.346680,714.836609 328.443756,716.432312 325.899689,716.400879 
	C319.425476,716.320801 312.949615,716.374329 305.954620,716.374329 
	C306.989899,710.365906 309.876282,705.473816 311.668274,699.822815 
M351.217072,654.559753 
	C348.709290,661.651672 346.201508,668.743530 343.579102,676.159607 
	C351.515411,676.159607 358.371338,676.159607 366.095886,676.159607 
	C362.283295,665.403870 358.727020,655.371277 354.904449,644.587463 
	C353.532135,648.247375 352.487488,651.033386 351.217072,654.559753 
z"/>
<path fill="#000000" opacity="1.000000" stroke="none" 
	d="
M668.060547,833.087524 
	C668.034668,845.355408 668.034668,845.350586 656.055908,845.344299 
	C639.723022,845.335754 623.388550,845.209351 607.058289,845.414490 
	C602.594543,845.470581 601.283691,844.456787 601.318176,839.577515 
	C601.515564,811.605469 601.191467,783.629944 601.073486,755.655396 
	C601.044556,748.800171 601.094543,748.785583 608.022522,748.779602 
	C625.855347,748.764160 643.689453,748.876465 661.520020,748.672729 
	C665.783569,748.623962 667.363953,749.763855 667.361633,754.262878 
	C667.353943,769.169434 667.516663,769.159729 652.817322,769.135803 
	C644.484253,769.122253 636.148804,769.268311 627.819214,769.101624 
	C623.879578,769.022827 622.228516,770.179810 622.258850,774.485718 
	C622.344360,786.631592 622.161621,786.628113 634.370178,786.617432 
	C643.512634,786.609497 652.655029,786.615845 662.384766,786.615845 
	C662.384766,792.699158 662.492004,798.471436 662.343933,804.237122 
	C662.256958,807.624390 659.370422,806.851440 657.422363,806.868958 
	C647.256958,806.960449 637.086731,807.040955 626.925781,806.800659 
	C623.403809,806.717407 622.337158,807.784607 622.281372,811.288513 
	C622.052673,825.646057 621.947815,825.644592 636.176697,825.643616 
	C644.509827,825.643066 652.842896,825.627991 661.176025,825.645020 
	C667.905151,825.658813 667.905090,825.675781 668.060547,833.087524 
z"/>
<path fill="#000000" opacity="1.000000" stroke="none" 
	d="
M781.999146,614.651123 
	C793.772766,614.620178 804.059021,617.768066 813.489014,624.036987 
	C816.509583,626.044983 817.204590,627.834717 814.977417,630.850769 
	C812.114075,634.728455 810.331177,640.199890 806.569885,642.411316 
	C802.157349,645.005493 798.374451,639.001221 793.854004,637.771606 
	C787.391174,636.013733 781.035889,634.036377 774.334534,636.291626 
	C770.664246,637.526794 767.727783,639.627563 767.405212,643.886963 
	C767.091064,648.035583 769.843628,650.210022 773.078735,651.887573 
	C778.280212,654.584534 783.969604,655.919067 789.519897,657.642639 
	C793.327881,658.825134 797.133728,660.024353 800.894958,661.345825 
	C811.153931,664.950134 817.133362,672.172791 818.229675,682.991272 
	C819.407959,694.619202 815.801147,704.365540 805.728149,711.050049 
	C790.019531,721.474426 758.342834,718.597107 744.655090,705.652222 
	C742.648438,703.754456 742.632080,702.232605 744.320984,700.135986 
	C746.822632,697.030518 749.145874,693.772278 751.402710,690.481384 
	C753.270874,687.757263 755.077209,687.366760 758.008362,689.278809 
	C765.622314,694.245300 773.798035,697.862183 783.174255,697.636353 
	C784.652527,697.600708 786.162354,697.425720 787.591003,697.057190 
	C791.849670,695.959045 795.359375,694.112061 795.735352,688.961365 
	C796.120667,683.683594 792.742371,681.447998 788.584961,680.096802 
	C781.164246,677.684998 773.631348,675.621094 766.180908,673.297791 
	C752.252197,668.954285 744.753967,659.215881 744.678162,645.526245 
	C744.599854,631.385559 751.840698,621.525574 765.823181,616.966492 
	C770.899658,615.311218 776.133057,614.380493 781.999146,614.651123 
z"/>
<path fill="#000000" opacity="1.000000" stroke="none" 
	d="
M578.997864,616.669678 
	C585.799255,616.890869 592.086365,616.395325 598.400330,617.580078 
	C615.691956,620.824890 625.338501,632.226318 625.347839,650.002869 
	C625.356995,667.384766 617.144165,678.366821 601.182495,681.990173 
	C593.827332,683.659790 586.286865,683.674866 578.815186,683.246826 
	C573.900696,682.965332 571.916504,684.326843 572.214966,689.589111 
	C572.638794,697.061462 572.205139,704.578613 572.334473,712.073242 
	C572.390381,715.313721 571.129089,716.550537 567.925354,716.433838 
	C563.599548,716.276184 559.249146,716.181030 554.935974,716.464661 
	C550.701660,716.743164 549.563477,714.985413 549.584045,710.954041 
	C549.719177,684.464966 549.651367,657.974792 549.651184,631.484985 
	C549.651184,627.986328 549.793701,624.481201 549.623901,620.990967 
	C549.465698,617.740295 550.805481,616.585815 554.008545,616.637939 
	C562.169861,616.770691 570.334900,616.674500 578.997864,616.669678 
M592.270508,637.070251 
	C586.709412,635.630249 581.049194,636.584106 575.436951,636.381958 
	C573.038147,636.295410 572.318726,637.730286 572.328613,639.884888 
	C572.359924,646.685791 572.381897,653.487183 572.320740,660.287659 
	C572.296570,662.967834 573.726318,663.697754 576.088989,663.665344 
	C580.401062,663.606262 584.718262,663.755066 589.026428,663.611389 
	C596.619263,663.358154 601.482910,659.425598 602.556335,652.882202 
	C603.862671,644.919067 600.926941,640.090820 592.270508,637.070251 
z"/>
<path fill="#000000" opacity="1.000000" stroke="none" 
	d="
M291.443054,641.443848 
	C288.786743,643.723145 286.388855,645.759888 284.186035,647.630981 
	C281.701080,647.395081 280.790588,645.611389 279.490387,644.423584 
	C270.575317,636.279175 260.216217,633.627258 249.037537,638.107727 
	C237.647461,642.672852 232.179016,651.983765 231.221237,664.171265 
	C229.583588,685.009888 244.444366,697.750000 260.537994,697.597595 
	C268.204987,697.525024 274.813049,694.501526 280.150146,689.049316 
	C282.540497,686.607483 284.438141,686.525757 286.875336,688.823792 
	C289.656891,691.446594 292.463135,694.110840 295.587280,696.284912 
	C299.238586,698.825745 298.241791,700.660645 295.671356,703.296997 
	C281.289734,718.047607 259.256470,722.518494 239.464508,714.510254 
	C220.128983,706.686646 209.090744,689.362732 208.538132,668.089783 
	C207.901047,643.565613 223.291168,621.917725 246.992371,616.433899 
	C265.336792,612.189575 281.481720,616.316284 295.044220,629.889893 
	C298.520203,633.368713 298.667694,635.757690 294.630890,638.491028 
	C293.541901,639.228271 292.671936,640.289062 291.443054,641.443848 
z"/>
<path fill="#000000" opacity="1.000000" stroke="none" 
	d="
M745.840820,845.219421 
	C709.981934,855.300415 677.502808,828.915527 680.819397,792.448303 
	C683.294739,765.231567 705.659363,746.499146 732.012085,747.388306 
	C745.725952,747.850952 756.689636,753.178650 765.918457,762.962830 
	C768.094177,765.269409 768.400940,766.994507 765.809265,769.101562 
	C762.969116,771.410583 760.134033,773.766785 757.589417,776.386658 
	C755.145020,778.903137 753.449646,778.659546 751.029663,776.207764 
	C743.005188,768.077942 733.269653,764.972534 722.286377,768.603577 
	C709.331665,772.886475 703.759277,783.092468 702.518860,795.993286 
	C701.468506,806.916504 708.757263,819.243774 718.852966,824.276245 
	C729.142761,829.405518 741.754761,827.572449 750.812561,819.236633 
	C753.359009,816.893066 755.103149,816.865906 757.472778,819.125977 
	C759.879578,821.421387 762.334656,823.737366 765.071716,825.598511 
	C769.095520,828.334351 768.214966,830.751160 765.243591,833.510498 
	C759.685486,838.671814 753.553101,842.859009 745.840820,845.219421 
z"/>
<path fill="#000000" opacity="1.000000" stroke="none" 
	d="
M213.601196,748.115356 
	C231.015610,745.893555 246.083344,749.382141 257.947479,762.751709 
	C260.176544,765.263611 260.735382,766.969971 257.863159,769.224731 
	C254.985626,771.483643 252.158661,773.853271 249.601135,776.460388 
	C247.124283,778.985229 245.456665,778.552673 243.010452,776.231750 
	C232.865845,766.606323 220.866348,764.601013 210.137131,770.714050 
	C199.279724,776.900024 195.115295,787.051941 195.505447,798.863953 
	C195.887848,810.441284 201.042160,819.938354 212.126770,824.657288 
	C222.939606,829.260620 233.419037,827.846558 242.386841,819.892090 
	C245.405060,817.214905 247.560074,817.116455 250.336548,819.887390 
	C252.568863,822.115173 254.948166,824.269897 257.547638,826.037354 
	C260.992065,828.379456 260.708069,830.234314 257.967163,833.082520 
	C236.392868,855.501526 198.139984,851.640198 181.402252,825.139099 
	C163.667221,797.058960 176.329285,755.816833 213.601196,748.115356 
z"/>
<path fill="#000000" opacity="1.000000" stroke="none" 
	d="
M805.681396,822.999878 
	C805.678406,806.174927 805.583557,789.849060 805.740967,773.525696 
	C805.777771,769.703186 804.722168,768.099182 800.667664,768.280579 
	C794.516785,768.555847 788.342773,768.267334 782.181152,768.372131 
	C779.206116,768.422729 777.902710,767.166565 777.954834,764.236572 
	C778.023010,760.406433 778.062439,756.573669 777.996582,752.744080 
	C777.944519,749.718201 779.392334,748.709656 782.299377,748.718201 
	C804.787598,748.784302 827.276245,748.810913 849.764221,748.714111 
	C853.274536,748.698975 854.287659,750.056702 854.377563,753.432800 
	C854.775085,768.355408 854.863159,768.353088 840.070007,768.345642 
	C827.349182,768.339233 827.349182,768.339233 827.348633,780.927612 
	C827.347839,800.417603 827.242615,819.908569 827.425903,839.396851 
	C827.467224,843.792908 826.406982,845.895325 821.600647,845.423218 
	C817.805237,845.050415 813.940491,845.217285 810.115295,845.367004 
	C806.915344,845.492249 805.598755,844.205750 805.664551,840.989990 
	C805.783752,835.162231 805.687744,829.330139 805.681396,822.999878 
z"/>
</svg>